<svg width="192" height="30" viewBox="0 0 192 30" fill="none" xmlns="http://www.w3.org/2000/svg">
<g clip-path="url(#clip0_101_34)">
<path d="M5.05486 29.0047H0.0785522V0.7109H6.61884C13.7278 0.7109 17.4245 5.97156 17.4245 11.2322C17.4245 16.4929 13.5857 21.7536 7.32974 21.7536H5.05486V29.0047ZM5.05486 17.0616H7.04538C10.5999 17.0616 12.306 14.0758 12.306 11.2322C12.306 8.38863 10.4577 5.40284 6.47666 5.40284H5.05486V17.0616ZM31.216 29.4313C24.6757 29.4313 20.2681 24.8815 20.2681 18.0569V0.7109H25.3866V17.9147C25.3866 22.3223 27.5193 24.5972 31.3582 24.5972C36.1923 24.5972 37.1876 20.9005 37.1876 17.9147V0.7109H42.306V18.0569C42.1639 24.8815 37.7563 29.4313 31.216 29.4313ZM59.3677 29.0047H45.5762V0.7109H50.6947V24.1706H59.3677V29.0047ZM75.1497 29.0047H61.3582V0.7109H66.4767V24.1706H75.1497V29.0047ZM113.112 29.0047H104.439V0.7109H109.699C112.685 0.7109 115.102 0.853081 116.808 1.99052C119.368 3.41232 120.647 5.82938 120.647 8.81517C120.647 10.8057 119.794 12.5118 118.372 13.7915C121.074 15.2133 122.496 17.4882 122.496 20.7583C122.638 25.3081 118.372 29.0047 113.112 29.0047ZM109.415 24.1706H112.116C117.377 24.1706 117.377 21.327 117.377 20.4739C117.377 19.6209 117.377 16.7773 112.259 16.7773H109.415V24.1706ZM109.415 12.2275H111.406C113.254 12.2275 115.529 11.6588 115.529 8.81517C115.529 7.39336 115.102 5.40284 111.121 5.40284H109.273L109.415 12.2275ZM142.543 29.0047H125.197V0.7109H142.543V5.54502H130.316V12.2275H141.832V16.9194H130.316V24.1706H142.543V29.0047ZM171.263 29.0047H165.434L162.59 21.6114H152.211L149.368 29.0047H143.965L155.481 0.853081H159.462L171.263 29.0047ZM153.917 16.9194H160.742L157.33 8.38863L153.917 16.9194ZM182.922 24.1706C183.633 25.7346 184.486 27.2986 185.481 28.8626H191.737C190.316 26.7299 188.894 24.0284 187.756 21.7536L185.624 17.4882C186.903 16.7773 188.041 15.782 188.894 14.5024C189.747 13.0806 190.173 11.5166 190.173 9.66825C190.173 4.12322 186.05 0.853081 179.368 0.853081H172.543V29.0047H177.519V19.4787C177.519 19.4787 178.799 19.4787 180.505 19.1943C181.074 20.3318 181.927 22.1801 182.922 24.1706ZM177.519 14.3602V5.54502H179.083C183.064 5.54502 185.055 6.96683 185.055 9.81043C185.055 13.6493 181.927 14.5024 179.225 14.5024H177.519V14.3602ZM96.4767 22.4645C96.4767 21.4692 96.6188 20.6161 96.9032 19.763C97.4719 18.1991 98.325 17.0616 99.4624 16.9194H99.6046V12.2275C96.0501 12.2275 93.2065 14.6446 92.3534 17.9147L84.9601 9.81043C84.2492 9.09953 83.9648 8.38863 83.9648 7.67773C83.9648 6.96683 84.2492 6.25592 84.8179 5.6872C85.3866 5.11848 86.0975 4.83412 86.8084 4.83412C87.5193 4.83412 88.2302 5.11848 88.7989 5.6872C89.0833 5.97156 89.2255 6.25592 89.3677 6.54028L93.6331 4.40758C93.2065 3.69668 92.78 2.98578 92.2113 2.27488C90.7895 0.853081 88.7989 0 86.8084 0C84.8179 0 82.9696 0.7109 81.4056 2.27488C79.9838 3.69668 79.1307 5.6872 79.1307 7.67773C79.1307 9.52607 79.8416 11.5166 81.2634 12.9384C78.7041 14.5024 76.8558 17.346 76.8558 20.6161C76.8558 25.7346 80.979 30 86.2397 30C89.2255 30 91.9269 28.7204 93.7752 26.7299L95.7658 28.8626H102.448L96.4767 22.4645ZM86.3819 25.3081C83.8226 25.3081 81.8321 23.1754 81.8321 20.6161C81.8321 18.7678 83.1117 17.2038 84.8179 16.6351L90.7895 23.1754C89.652 24.455 88.088 25.3081 86.3819 25.3081Z" fill="#94A2BD"/>
</g>
<defs>
<clipPath id="clip0_101_34">
<rect width="191.816" height="30" fill="white"/>
</clipPath>
</defs>
</svg>
