<svg width="155" height="30" viewBox="0 0 155 30" fill="none" xmlns="http://www.w3.org/2000/svg">
<g clip-path="url(#clip0_101_36)">
<path d="M15.7122 0.0032959C6.32566 0.0032959 -3.05176e-05 6.60105 -3.05176e-05 15.0013C-3.05176e-05 23.4015 6.32566 29.9993 15.7122 29.9993C25.0987 29.9993 31.4243 23.4015 31.4243 15.0013C31.4243 6.60105 25.0987 0.0032959 15.7122 0.0032959ZM15.7122 29.013C9.1144 29.013 4.76124 24.3878 4.76124 15.0013C4.76124 5.61479 9.1144 0.989559 15.7122 0.989559C22.3099 0.989559 26.6631 5.61479 26.6631 15.0013C26.6631 24.3878 22.2759 29.013 15.7122 29.013ZM53.8363 1.26163V1.97582C55.6728 1.97582 56.489 2.38393 56.489 3.64227C56.489 4.62853 55.7748 5.88686 52.578 11.0562C50.7415 13.845 49.7892 15.9535 49.4832 16.6677C49.075 15.5454 48.0888 13.1648 45.8442 9.25376C45.13 7.99543 44.4498 7.00916 43.8717 6.15894C42.7494 4.49249 42.3413 3.64227 42.3413 3.06411C42.3413 2.21388 42.7494 2.07785 44.1777 1.94181V1.26163H40.0967C36.0156 1.26163 33.3629 1.12559 33.3629 1.12559V1.83979C36.1516 2.24789 37.8521 3.37019 42.4773 10.8182C45.5721 15.8515 45.9802 17.552 46.1163 19.7966V20.7488C46.1163 23.7076 46.1163 25.6461 45.8442 26.7684C45.5721 28.1628 44.7219 28.1628 42.8854 28.4349V29.1491C43.5996 29.1491 45.8442 28.877 47.9187 28.877C50.1633 28.877 52.9521 29.1491 52.9521 29.1491V28.4349C51.2856 28.2988 50.2994 28.1628 49.9933 26.7684C49.7212 25.6461 49.7212 23.6736 49.7212 20.7488V19.6265C49.8573 17.654 50.5714 15.8515 53.2242 11.6344C57.3052 5.03664 59.1077 2.51997 62.4746 1.97582V1.12559C61.7604 1.12559 59.3798 1.26163 56.7271 1.26163H53.8363ZM138.927 0.0032959C129.54 0.0032959 123.215 6.60105 123.215 15.0013C123.215 23.4015 129.54 29.9993 138.927 29.9993C148.313 29.9993 154.639 23.4015 154.639 15.0013C154.639 6.60105 148.313 0.0032959 138.927 0.0032959ZM138.927 29.013C132.329 29.013 127.976 24.3878 127.976 15.0013C127.976 5.61479 132.329 0.989559 138.927 0.989559C145.525 0.989559 149.878 5.61479 149.878 15.0013C149.742 24.3878 145.389 29.013 138.927 29.013ZM76.1123 13.4709L73.0174 11.4984C70.5008 9.96795 68.6643 8.53957 68.6643 5.75083C68.6643 2.79204 70.7728 0.989559 74.0037 0.989559C78.6289 0.989559 79.6152 4.76456 80.0233 7.45128H80.5674C80.5674 7.17921 80.7035 6.05691 80.7035 4.66254C80.7035 2.82605 80.5674 1.87379 80.5674 1.87379C80.2954 1.60172 77.9147 0.343387 74.2418 0.343387C68.7663 0.343387 65.8415 3.71028 65.8415 7.62133C65.8415 10.5801 67.0999 13.5049 71.1809 15.8855L74.2758 17.8581C76.6564 19.3885 78.765 20.9529 78.765 23.8777C78.765 27.3806 76.3843 29.081 72.8814 29.081C68.5282 29.081 66.7257 26.4283 65.6034 21.497H65.0593C65.0593 22.3472 64.9233 23.1635 64.9233 24.5918C64.9233 26.2583 65.0593 27.6867 65.0593 27.6867C65.1953 27.8227 67.8481 29.9313 72.4733 29.9313C78.3568 29.9313 81.7237 26.7004 81.7237 21.9391C81.7237 18.3682 80.0573 15.9876 76.1123 13.4709ZM107.401 1.12559V1.83979C109.237 1.97582 110.053 2.11186 110.359 3.50623C110.631 4.62853 110.631 6.60105 110.631 9.52583V14.015H95.2253V9.3898C95.2253 6.43101 95.2253 4.49249 95.4974 3.37019C95.7695 1.97582 96.6197 1.97582 98.4562 1.70375V1.12559C98.4562 1.12559 95.6675 1.26163 93.4229 1.26163C91.3143 1.26163 89.0697 1.12559 88.3895 1.12559V1.83979C90.226 1.97582 91.0422 2.11186 91.3483 3.50623C91.6204 4.62853 91.6204 6.60105 91.6204 9.52583V20.7488C91.6204 23.7076 91.6204 25.6461 91.3483 26.7684C91.0762 28.1628 90.226 28.1628 88.3895 28.4349V29.1491C89.1037 29.1491 91.3483 29.013 93.4229 29.013C95.6675 29.013 98.4562 29.1491 98.4562 29.1491V28.4349C96.6197 28.1628 95.6675 28.0268 95.3614 26.5984C95.0893 25.4761 95.0893 23.5036 95.0893 20.5788V15.1373H110.495V20.6128C110.495 23.5716 110.495 25.5101 110.223 26.6324C109.951 28.0268 109.101 28.0268 107.265 28.2988V29.013C107.979 29.013 110.223 28.877 112.298 28.877C114.542 28.877 117.331 29.013 117.331 29.013V28.2988C115.801 28.1628 114.951 28.0268 114.679 26.6324C114.406 25.5101 114.406 23.5376 114.406 20.6128V9.3898C114.406 6.43101 114.406 4.49249 114.679 3.37019C114.951 1.97582 115.801 1.97582 117.637 1.70375V1.12559C117.637 1.12559 114.849 1.26163 112.604 1.26163C110.325 1.26163 108.081 1.12559 107.401 1.12559Z" fill="#94A2BD"/>
</g>
<defs>
<clipPath id="clip0_101_36">
<rect width="154.639" height="30" fill="white"/>
</clipPath>
</defs>
</svg>
